<svg xmlns="http://www.w3.org/2000/svg" role="img" viewBox="0 0 160 160">
  <title>Audiobookshelf MCP owl logo</title>
  <rect width="160" height="160" rx="34" fill="#F8FAFC" />
  <path d="M45 64c7-24 26-35 35-35s28 11 35 35v43c0 15-13 27-35 27s-35-12-35-27V64Z" fill="#8B5CF6" />
  <circle cx="66" cy="79" r="16" fill="#FFF7ED" />
  <circle cx="94" cy="79" r="16" fill="#FFF7ED" />
  <circle cx="66" cy="79" r="6" fill="#0F172A" />
  <circle cx="94" cy="79" r="6" fill="#0F172A" />
  <path d="M73 99l7 8 7-8" fill="#F59E0B" />
  <path d="M43 80c0-28 15-46 37-46s37 18 37 46" fill="none" stroke="#0F172A" stroke-width="7" stroke-linecap="round" />
  <rect x="33" y="77" width="16" height="31" rx="8" fill="#0F172A" />
  <rect x="111" y="77" width="16" height="31" rx="8" fill="#0F172A" />
</svg>
