<svg xmlns="http://www.w3.org/2000/svg" role="img" viewBox="0 0 128 128">
  <title>Audiobookshelf MCP logo</title>
  <defs>
    <linearGradient id="cover" x1="22" x2="92" y1="18" y2="110" gradientUnits="userSpaceOnUse">
      <stop stop-color="#2563EB" />
      <stop offset="1" stop-color="#0F766E" />
    </linearGradient>
    <linearGradient id="page" x1="46" x2="104" y1="26" y2="102" gradientUnits="userSpaceOnUse">
      <stop stop-color="#F8FAFC" />
      <stop offset="1" stop-color="#DCE8F4" />
    </linearGradient>
  </defs>
  <rect width="128" height="128" rx="28" fill="#0B1220" />
  <path d="M31 23h47c10 0 18 8 18 18v64H44c-7 0-13-6-13-13V23Z" fill="url(#cover)" />
  <path d="M44 30h43c6 0 10 4 10 10v63H49c-6 0-10-4-10-10V35c0-3 2-5 5-5Z" fill="url(#page)" />
  <path d="M31 23h12v78H31V23Z" fill="#1E40AF" opacity=".75" />
  <path d="M52 51h9v31h-9V51Zm18-13h9v44h-9V38Zm18 23h9v21h-9V61Z" fill="#0F766E" />
  <path d="M49 101h48" stroke="#94A3B8" stroke-width="5" stroke-linecap="round" />
  <circle cx="32" cy="32" r="5" fill="#F8FAFC" />
  <circle cx="101" cy="32" r="5" fill="#38BDF8" />
  <circle cx="101" cy="96" r="5" fill="#2DD4BF" />
  <path d="M37 32h59M96 36v55" stroke="#7DD3FC" stroke-width="3" stroke-linecap="round" opacity=".8" />
</svg>
